PathFileType	4	(X/Y/Z)	D:\TRACE\v60_Jaco2_6-2-23\BothDRS_Motion2_8-v60.trc
DataRate	CameraRate	NumFrames	NumMarkers	Units	OrigDataRate	OrigDataStartFrame	OrigNumFrames
100.00	100.00	      31	9	mm	100.00	4688	      7500
Frame#	Time	front left toe			Front right toe			aft left toe			aft right toe			Arm			FL body			FR body			AL Body			AR Body			
		X1	Y1	Z1	X2	Y2	Z2	X3	Y3	Z3	X4	Y4	Z4	X5	Y5	Z5	X6	Y6	Z6	X7	Y7	Z7	X8	Y8	Z8	X9	Y9	Z9	

4688	46.870	-69.15199	45.65452	-268.74478	208.52736	100.62755	-358.23877	-82.49695	42.68213	302.28183	394.85403	-7.18779	310.55652	182.85175	1138.63232	-667.94666	9.24896	603.09241	-411.80695	168.17633	601.29388	-431.96930	123.89407	547.07898	525.28241	278.62259	539.76825	506.65308	
4689	46.880	-70.25729	45.94133	-269.03659	214.20403	114.17675	-355.14285	-81.18433	55.84398	305.90039	394.76529	-7.37308	310.47897	184.75534	1140.73193	-664.20520	10.56110	603.68182	-409.46872	169.51779	602.01086	-429.51065	125.94291	544.84955	527.94952	280.28598	538.08490	509.11725	
4690	46.890	-70.95896	46.12535	-268.87875	220.07750	127.53343	-350.23767	-78.83094	69.09419	310.94901	394.57599	-7.40216	310.68341	186.43611	1141.76733	-660.82727	11.72917	604.56482	-407.46512	170.43434	602.38177	-426.64755	127.36111	542.82629	529.74347	282.93716	536.08917	510.96893	
4691	46.900	-71.53265	45.99280	-268.91986	227.48436	140.21019	-345.11868	-75.30525	81.34392	316.27408	393.97894	-7.83045	310.71936	187.68071	1142.64807	-656.64728	12.64384	604.89154	-405.22418	172.20872	603.22296	-425.26129	128.29160	541.35175	531.55475	284.08777	534.08008	513.40979	
4692	46.910	-71.97237	45.80253	-268.67892	234.14796	151.41714	-340.13647	-69.79037	91.87133	321.63928	393.31937	-8.02561	310.86728	188.61441	1143.18616	-653.84515	13.98412	605.15271	-403.24493	173.57698	603.61761	-423.42108	129.84032	539.69330	533.22327	284.91504	532.23468	514.88776	
4693	46.920	-72.23113	45.75800	-268.37631	240.87935	161.76250	-334.91605	-64.26805	101.43283	326.68179	392.89005	-8.36713	311.14148	190.37074	1143.68005	-650.97217	14.96605	605.68170	-401.05618	173.57100	603.53009	-421.12122	130.82753	537.98816	535.36194	285.91348	530.45654	516.79590	
4694	46.930	-72.56264	45.92642	-268.22308	246.21136	170.85849	-330.09674	-57.78379	109.13612	331.09836	392.55811	-8.55233	311.45840	191.68881	1144.58899	-648.15796	15.50617	606.35736	-399.07584	174.93886	603.83716	-419.51236	132.13383	536.49310	537.13342	287.58984	529.14148	519.24652	
4695	46.940	-73.14251	46.29007	-268.08173	251.08191	176.96490	-324.98962	-53.08208	115.08633	336.11328	392.16550	-8.90587	311.59384	193.18645	1144.58118	-645.73608	16.41319	606.68207	-397.07294	175.52606	604.23315	-417.37042	133.81944	535.21613	538.74194	288.41177	527.67133	520.98682	
4696	46.950	-74.12182	46.59573	-267.81119	255.66507	180.34247	-319.70428	-47.93815	117.85333	340.87772	392.16922	-8.96122	311.97034	194.49590	1144.87305	-643.02765	16.83430	607.01385	-395.10040	175.64728	604.55457	-416.19812	134.59978	534.15839	540.41614	289.50620	526.05322	521.93726	
4697	46.960	-74.72928	46.66480	-267.58777	261.10162	180.36087	-314.16568	-43.48267	118.09587	345.71954	391.62024	-9.10134	312.02957	195.28764	1145.13074	-640.51025	16.94526	606.85974	-393.39066	176.15688	604.45984	-414.26697	135.65166	532.45947	542.39215	290.46118	524.93524	523.46393	
4698	46.970	-75.05621	46.50700	-267.29990	266.75916	177.13289	-308.73785	-38.87171	115.12592	351.29956	390.59894	-9.60951	312.10583	196.27238	1145.73328	-638.17194	17.42142	606.69690	-391.35400	175.83037	603.93451	-412.04984	136.44160	531.81226	543.84259	290.50903	523.42792	524.39435	
4699	46.980	-75.41205	46.52291	-267.21265	272.29080	172.34798	-303.05597	-34.66642	110.13269	357.30676	390.03558	-9.95821	312.14346	196.54216	1146.23950	-636.04663	17.75740	607.03790	-389.68103	176.70467	604.02716	-410.73529	137.36873	531.21405	545.31494	292.36182	522.73486	526.38983	
4700	46.990	-76.22480	46.81179	-267.06366	277.62158	166.59248	-297.45395	-30.12919	104.48766	363.48352	389.75168	-9.87264	312.17307	197.26933	1146.22534	-634.12073	18.20084	607.02704	-387.93921	176.05151	603.61786	-408.06183	138.26357	529.82245	546.97583	292.96353	522.12836	528.55396	
4701	47.000	-77.18919	46.91549	-266.98807	281.90085	160.00665	-291.98483	-26.33287	98.22369	368.91898	389.27136	-10.02710	312.24872	197.48369	1145.94446	-632.12579	17.89808	607.40027	-386.51321	177.27480	604.02496	-407.78531	139.02898	529.46661	548.29468	293.55478	520.94861	529.05511	
4702	47.010	-77.70101	46.71965	-266.95175	286.32529	152.11537	-286.86237	-21.02460	90.25253	374.36597	388.73773	-10.08059	312.42813	197.25201	1145.79395	-630.47571	18.59472	607.20178	-384.96585	177.45415	603.79761	-405.90628	139.22220	528.03320	549.78125	293.69522	520.00964	530.54877	
4703	47.020	-78.35624	46.48416	-266.88638	291.09366	143.05785	-281.90674	-16.52778	81.94822	379.56302	387.90942	-10.29414	312.57309	197.51450	1145.67639	-628.92230	18.32299	607.07251	-383.56192	177.69487	603.85620	-404.86179	139.27666	527.58490	551.08575	293.95236	519.15063	531.78528	
4704	47.030	-78.92604	46.50328	-266.86850	295.99219	133.67992	-277.47623	-11.76548	72.61039	384.73904	387.43411	-10.28224	312.80185	197.45067	1145.76501	-627.43860	18.83860	606.73547	-382.39780	178.00601	603.50043	-403.12469	139.94756	526.40228	551.78467	294.09549	518.39099	533.05121	
4705	47.040	-79.99535	46.79677	-266.77200	301.50848	123.25594	-272.78064	-7.26893	62.54367	389.42365	386.58102	-10.33395	312.70544	197.51376	1145.70105	-625.64484	18.50721	606.88446	-381.08893	177.15564	603.27551	-401.83911	139.72913	526.38751	553.51727	294.15421	517.78845	533.95410	
4706	47.050	-80.45922	46.62775	-266.80087	305.77847	112.06642	-268.13190	-3.90601	52.99786	393.94589	385.97934	-10.37127	312.85269	197.58307	1145.97058	-624.07587	18.45912	606.70557	-379.86081	178.07944	603.36871	-401.07791	140.17213	525.11005	554.15289	294.06299	517.21191	535.00000	
4707	47.060	-81.00543	46.40170	-266.74316	312.03174	102.65510	-263.79285	-1.20623	43.77940	397.69708	385.22165	-10.26098	312.86267	197.69698	1146.04553	-622.77502	18.24133	606.69159	-378.98749	177.46222	603.36127	-400.14859	139.79062	524.67126	555.23297	294.10367	516.22095	536.07294	
4708	47.070	-81.88534	46.05311	-266.61047	315.42206	92.22373	-260.84705	0.37860	33.81580	400.65662	384.46930	-10.09715	313.13474	197.60414	1146.06311	-621.29749	18.38083	606.18188	-377.94855	178.04877	603.37537	-398.86343	139.65372	523.07800	556.60693	293.67386	515.54742	536.82153	
4709	47.080	-82.79610	46.04206	-266.78601	317.36050	83.32954	-259.84698	2.37431	23.69507	402.18613	383.64804	-10.19285	313.06461	197.35052	1146.20972	-619.67609	18.31166	605.90741	-376.97430	177.71785	603.42487	-397.82785	139.37563	521.85376	556.67291	293.73868	514.50452	537.49139	
4710	47.090	-83.33060	45.97844	-266.82343	318.28494	74.71106	-260.27786	3.61092	14.41258	401.61307	382.98383	-10.41466	313.08066	196.28651	1146.46887	-618.40308	18.14780	605.87683	-376.38272	177.14490	603.64075	-397.59506	138.59668	521.54810	557.98950	292.73373	513.71075	538.30835	
4711	47.100	-84.07583	46.23977	-266.83765	320.09921	67.71085	-261.42023	3.01159	6.58542	399.96140	382.35226	-10.37369	313.02600	194.84409	1147.03296	-616.98602	17.86933	606.09473	-375.77905	177.60327	604.20349	-396.31625	138.62573	519.94318	557.99127	293.01303	513.02020	538.83093	
4712	47.110	-84.88467	46.16741	-266.81360	317.17386	60.40946	-263.95001	2.11247	-0.52549	396.98233	381.59769	-10.40743	313.04837	193.17574	1148.06055	-615.30902	17.76846	606.08679	-375.00104	176.51698	604.32019	-394.67792	138.16560	518.78925	558.67853	291.78229	511.87497	539.28461	
4713	47.120	-85.96727	46.03131	-266.76825	314.99554	54.61458	-266.65524	1.07820	-7.50864	393.46964	380.84354	-10.42068	313.18466	191.95822	1149.15222	-613.89130	17.75299	606.12549	-374.59760	177.09705	604.66736	-395.18756	136.88991	518.14490	559.49542	290.76877	510.46188	539.38794	
4714	47.130	-86.33650	45.79918	-266.98093	312.62598	48.79364	-269.68970	-0.22485	-13.60983	389.78970	379.92303	-10.27090	313.15579	190.35661	1150.04871	-612.45355	17.33958	606.17572	-374.39938	176.60175	604.91724	-394.75565	136.48813	516.45203	559.83685	290.08234	509.82791	539.80743	
4715	47.140	-87.06033	45.45552	-267.13000	312.45618	46.95048	-271.49405	-1.76060	-16.68572	386.94623	379.31232	-9.92640	313.14752	189.23245	1151.15308	-611.21350	16.52856	606.35126	-374.09564	175.87724	605.28778	-394.57431	135.36089	515.91187	559.92517	289.32330	508.90076	539.87860	
4716	47.150	-87.93633	45.38828	-267.31741	311.58127	44.16230	-271.51575	-3.45144	-17.05850	388.48077	378.49991	-9.72597	313.08020	187.55437	1151.90356	-610.31500	15.32232	606.55591	-373.91733	174.86638	605.43085	-394.09421	135.11647	516.19830	559.77997	288.07117	509.02237	539.80524	
4717	47.160	-88.67658	45.38161	-267.52402	310.35638	43.70980	-271.96524	-4.23774	-16.09690	388.02118	377.14124	-9.02589	312.56964	187.02322	1152.56042	-610.06549	14.12162	606.85620	-373.63092	173.83508	606.24426	-393.99393	133.75726	517.39435	560.29291	286.99802	509.74731	539.07953	
4718	47.170	-88.30879	48.49264	-269.89920	309.64178	42.68705	-271.71420	-4.08314	-16.24124	388.87146	375.77420	-4.90590	311.99493	185.92360	1153.13928	-610.72968	12.74020	607.43512	-373.21701	172.30977	606.75043	-393.33578	132.88274	518.42621	560.89935	286.05240	511.18304	540.29974	
